<svg id="Layer_1" data-name="Layer 1" xmlns="http://www.w3.org/2000/svg" viewBox="0 0 558.51 559.8">
  <defs>
    <style>
      .cls-1 {
        fill: #1ea8e0;
      }

      .cls-2 {
        fill: #f05a28;
      }

      .cls-3 {
        fill: #db5325;
      }

      .cls-4 {
        fill: #fff;
        stroke: #231f20;
        stroke-miterlimit: 10;
        stroke-width: 3.15px;
      }
    </style>
  </defs>
  <path class="cls-1" d="M390.94,194.65q-5.54.45-11.17.45a135.21,135.21,0,0,1-42.19-6.71c-1.25-.41-2.49-.83-3.72-1.28a134.79,134.79,0,0,1-35.59-19.24,28.08,28.08,0,0,1-13.9-5.11c-8-5.46-12.39-13.42-10.83-19a135.58,135.58,0,0,1-16.39-26.35l114.31,66Z" transform="translate(-116.74 -26.1)"/>
  <path class="cls-2" d="M390.94,194.65l-22.38,10.64a163.11,163.11,0,0,0-34.28,22.26A200.19,200.19,0,0,0,307,232.87c-34.6,9.23-64,26.69-85,48.38-29.14-23.07-48.65-65.33-48.65-113.62,0-65.86,36.3-120.48,83.8-130.55a106.42,106.42,0,0,0-6.54,36.8c0,61.49,52.53,112.19,120.23,119.19Z" transform="translate(-116.74 -26.1)"/>
  <path class="cls-3" d="M209,49.83a134.78,134.78,0,0,0,2.06,16.74,151.83,151.83,0,0,0-34,92.67,252.47,252.47,0,0,0-29.59,57.69A152.74,152.74,0,0,1,209.64,26.29,137.44,137.44,0,0,0,209,49.83Z" transform="translate(-116.74 -26.1)"/>
  <path class="cls-2" d="M226.18,277.34c-51.93,39.35-84.66,93.93-87.7,150.73-.16,2.74-.24,5.5-.24,8.26C107.34,372,108.8,285.11,148.85,205.27a306.87,306.87,0,0,1,30.59-49c-1.11,24.72,5.18,53.23,19.26,80.81.72,1.44,1.48,2.86,2.25,4.29A187.25,187.25,0,0,0,226.18,277.34Z" transform="translate(-116.74 -26.1)"/>
  <path class="cls-4" d="M307,158a13.71,13.71,0,0,1-1.26,5.79,11.73,11.73,0,0,1-10.54,7.1c-6.51,0-11.79-5.77-11.79-12.89a13.28,13.28,0,0,1,5.22-10.72,11.09,11.09,0,0,1,6.57-2.18C301.7,145.11,307,150.88,307,158Z" transform="translate(-116.74 -26.1)"/>
  <path class="cls-1" d="M339.17,223.43a239.55,239.55,0,0,0-26.4,25.95,299.83,299.83,0,0,0-41.18,61.43,357.19,357.19,0,0,0-28.53,77c-18,73-12.34,143.9,11.25,196.56-.64-.29-1.3-.57-1.95-.85.13.28.25.56.38.85C206.5,564.53,164,516.15,142.51,452q-4.27-12.76-7.18-25.5c3-56.8,35.77-111.37,87.7-150.73a286,286,0,0,1,68.11-38.1,308.12,308.12,0,0,1,46.45-14.23c-.19.15-.39.33-.58.5C337.73,223.76,338.44,223.58,339.17,223.43Z" transform="translate(-116.74 -26.1)"/>
  <path class="cls-1" d="M392.52,406.92c3.7-.08,7.42,0,11.18.22a135.09,135.09,0,0,1,41.71,9.24c1.21.48,2.43,1,3.63,1.5a134.76,134.76,0,0,1,34.36,21.35A28.07,28.07,0,0,1,497,445.17c7.68,5.94,11.56,14.15,9.66,19.62a135.37,135.37,0,0,1,14.77,27.29L411.28,419.32Z" transform="translate(-116.74 -26.1)"/>
  <path class="cls-2" d="M392.52,406.92l23-9.27a164,164,0,0,0,35.56-20.16,200.51,200.51,0,0,0,27.58-3.66c35.09-7.13,65.48-22.79,87.76-43.17C594.09,355.45,611,398.8,608.11,447c-4,65.74-43.49,118.08-91.51,125.27a106.69,106.69,0,0,0,8.74-36.34c3.71-61.39-45.66-115.16-112.82-126.23Z" transform="translate(-116.74 -26.1)"/>
  <path class="cls-3" d="M565.36,562.43a135.56,135.56,0,0,0-1-16.83,151.82,151.82,0,0,0,39.52-90.45,252.5,252.5,0,0,0,33-55.8A152.72,152.72,0,0,1,563.34,585.9,137.49,137.49,0,0,0,565.36,562.43Z" transform="translate(-116.74 -26.1)"/>
  <path class="cls-2" d="M562,334.31c54.21-36.15,90.17-88.66,96.63-145.17.32-2.73.57-5.48.74-8.23,27,66.09,20.27,152.72-24.52,230A307.29,307.29,0,0,1,601.32,458c2.59-24.62-2-53.45-14.35-81.83-.64-1.48-1.31-2.94-2-4.42A187.45,187.45,0,0,0,562,334.31Z" transform="translate(-116.74 -26.1)"/>
  <path class="cls-4" d="M474.11,448.55a13.94,13.94,0,0,1,1.61-5.71,11.72,11.72,0,0,1,10.95-6.44c6.5.39,11.42,6.47,11,13.58a13.26,13.26,0,0,1-5.85,10.38,11.11,11.11,0,0,1-6.69,1.77C478.61,461.74,473.68,455.66,474.11,448.55Z" transform="translate(-116.74 -26.1)"/>
  <path class="cls-1" d="M445.93,381.31A240.93,240.93,0,0,0,473.85,357a300.3,300.3,0,0,0,44.81-58.84A357.25,357.25,0,0,0,551.77,223c22.4-71.83,21-142.9.62-196.88l1.9,1L554,26.2c45,22.62,84.46,73.48,102,138.82q3.5,13,5.63,25.88c-6.46,56.51-42.42,109-96.63,145.17A285.7,285.7,0,0,1,494.72,370a309.6,309.6,0,0,1-47.21,11.41l.61-.47C447.38,381.07,446.67,381.2,445.93,381.31Z" transform="translate(-116.74 -26.1)"/>
</svg>
